<svg xmlns="http://www.w3.org/2000/svg" viewBox="0 0 512 512" id="hand"><g><g><g><g><path fill="#f7caa5" d="M439.5,200.14l-1.64-67.18a28.094,28.094,0,0,1,25.33-29.38l23.02,145.27a84.868,84.868,0,0,1-15.97,50.87l-56.35,68.2a31.525,31.525,0,0,0-7.14,22.43l1.51,20.14L329.8,373.12l.3-.64a83.346,83.346,0,0,1,29.54-81.63l4.47-3.59a59.56,59.56,0,0,0,16.51-20.85l21.54-45.22A37.244,37.244,0,0,1,439.5,200.14Z"></path><polygon fill="#00efd1" points="408.26 410.49 417.09 414.7 393.48 464.29 284.66 412.46 308.28 362.87 329.8 373.12 408.26 410.49"></polygon><polygon fill="#00efd1" points="103.74 410.49 182.2 373.12 203.72 362.87 227.34 412.46 118.52 464.29 94.91 414.7 103.74 410.49"></polygon><path fill="#f7caa5" d="M72.5,200.14a37.244,37.244,0,0,1,37.34,21.05l21.54,45.22a59.56,59.56,0,0,0,16.51,20.85l4.47,3.59a83.346,83.346,0,0,1,29.54,81.63l.3.64-78.46,37.37,1.51-20.14a31.525,31.525,0,0,0-7.14-22.43l-56.35-68.2a84.868,84.868,0,0,1-15.97-50.87L48.81,103.58a28.1,28.1,0,0,1,25.37,27.94c0,.48-.02.96-.04,1.44Z"></path></g><g><path fill="#083863" d="M471.092 102.328a8.006 8.006 0 0 0-8.68-6.71 36.045 36.045 0 0 0-32.547 37.636l1.439 58.928a45.338 45.338 0 0 0-36.366 25.568L373.4 262.968a51.878 51.878 0 0 1-14.3 18.054l-4.466 3.586a90.93 90.93 0 0 0-34.124 75.227l-8.791-4.188a8 8 0 0 0-10.663 3.783l-23.62 49.59a8 8 0 0 0 3.782 10.663l108.82 51.83a8 8 0 0 0 10.664-3.784l23.609-49.59a8 8 0 0 0-3.78-10.66l-4.642-2.214-1.162-15.5a23.419 23.419 0 0 1 5.328-16.745l56.35-68.2q.171-.205.327-.423a93.475 93.475 0 0 0 17.475-55.666 7.917 7.917 0 0 0-.1-1.129zm-81.4 351.3l-94.373-44.95 16.739-35.144L406.43 418.48zm74.2-158.791l-56.171 67.983a39.355 39.355 0 0 0-8.955 28.129l.479 6.39L337.4 367.876a75.028 75.028 0 0 1 27.252-70.788l4.466-3.587a67.971 67.971 0 0 0 18.729-23.65l21.541-45.223a29.3 29.3 0 0 1 29.33-16.526q.974.1 1.938.258l-31.485 66.11a8 8 0 1 0 14.445 6.88l35.4-74.33a8 8 0 0 0-3.784-10.663 45.438 45.438 0 0 0-7.889-2.893l-1.482-60.7c0-.071 0-.14-.008-.211a20.059 20.059 0 0 1 10.841-18.873l21.527 135.846A77.389 77.389 0 0 1 463.9 294.836zM97.272 389.752l-1.163 15.515-4.642 2.212a8 8 0 0 0-3.78 10.66l23.609 49.59a8 8 0 0 0 10.664 3.784l108.82-51.83a8 8 0 0 0 3.782-10.663l-23.62-49.59a8 8 0 0 0-10.663-3.783l-8.791 4.188a90.926 90.926 0 0 0-34.119-75.223l-4.475-3.594A51.86 51.86 0 0 1 138.6 262.97l-21.54-45.218A45.363 45.363 0 0 0 80.695 192.18l1.441-58.953c.023-.569.044-1.138.044-1.707a35.954 35.954 0 0 0-32.594-35.9 8 8 0 0 0-8.678 6.71L17.889 247.6a7.917 7.917 0 0 0-.1 1.129 93.475 93.475 0 0 0 17.475 55.666q.156.218.327.423l56.354 68.205A23.411 23.411 0 0 1 97.272 389.752zm119.4 18.925L122.3 453.627 105.57 418.48l80.071-38.137 14.3-6.81zM33.782 249.527L55.311 113.669A20 20 0 0 1 66.18 131.52c0 .366-.018.732-.034 1.1 0 .048 0 .1 0 .146l-1.481 60.7a45.5 45.5 0 0 0-7.89 2.893 8 8 0 0 0-3.784 10.663l35.4 74.33a8 8 0 1 0 14.445-6.88L71.348 208.361q.971-.165 1.954-.261a29.29 29.29 0 0 1 29.315 16.53l21.541 45.222A67.968 67.968 0 0 0 142.881 293.5l4.475 3.594A75.024 75.024 0 0 1 174.6 367.878l-61.855 29.464.48-6.4a39.347 39.347 0 0 0-8.952-28.115L48.1 294.836A77.389 77.389 0 0 1 33.782 249.527z"></path><polygon fill="#083863" points="210.836 180.763 160.185 130.12 210.836 79.477 199.523 68.163 137.556 130.12 199.523 192.077 210.836 180.763"></polygon><polygon fill="#083863" points="312.477 192.077 374.444 130.12 312.477 68.163 301.164 79.477 351.815 130.12 301.164 180.763 312.477 192.077"></polygon><rect width="183.021" height="15.999" x="164.489" y="122.121" fill="#083863" transform="rotate(-74.802 255.999 130.12)"></rect></g></g></g></g></svg>